<?xml version="1.0" encoding="UTF-8"?>
<!-- Created with Inkscape (http://www.inkscape.org/) -->
<svg width="500" height="144.93" version="1.1" viewBox="0 0 500 144.93" xml:space="preserve" xmlns="http://www.w3.org/2000/svg" xmlns:cc="http://creativecommons.org/ns#" xmlns:dc="http://purl.org/dc/elements/1.1/" xmlns:rdf="http://www.w3.org/1999/02/22-rdf-syntax-ns#"><metadata><rdf:RDF><cc:Work rdf:about=""><dc:format>image/svg+xml</dc:format><dc:type rdf:resource="http://purl.org/dc/dcmitype/StillImage"/><dc:title/></cc:Work></rdf:RDF></metadata><g transform="matrix(.32 0 0 .32 -112.03 -535.43)"><g transform="matrix(.33727 0 0 .33727 232.01 1409.1)" stroke-width="2.0006"><path d="m3314.8 1860.8c-58.08-3.5573-111.03-14.23-147.75-29.782l-13.287-5.6272-0.5357-48.34c-0.2947-26.587-0.093-48.34 0.4481-48.34 0.5412 0 7.8252 2.7181 16.187 6.0402 46.208 18.358 112.07 33.453 166.95 38.261 47.691 4.1785 102.4-0.996 133.47-12.625 39.832-14.905 68.973-45.699 77.505-81.902 6.2824-26.656 2.3538-65.712-8.8114-87.601-6.3884-12.524-27.021-33.256-44.92-45.137-28.134-18.674-59.53-33.232-123.24-57.142-41.554-15.596-87.41-37.75-112.03-54.123-25.722-17.108-56.167-47.922-67.903-68.724-32.275-57.212-36.748-136.49-10.987-194.75 19.156-43.32 64.413-82.157 118.13-101.37 37.926-13.565 67.43-18.025 119.8-18.111 59.011-0.097 101.07 5.6069 154.01 20.884 16.831 4.857 57.347 19.838 59.774 22.102 1.5854 1.4788-25.475 80.663-28.961 84.746-0.832 0.9745-11.189-1.8501-23.148-6.3132-67.55-25.209-130.1-35.843-188.87-32.113-81.267 5.1581-130.48 53.358-125.13 122.55 4.8842 63.187 38.561 95.991 139.32 135.71 77.529 30.559 93.378 37.172 115.03 47.988 50.047 25.004 82.636 51.49 104.03 84.552 33.227 51.337 37.254 140.07 9.0908 200.32-15.733 33.654-39.772 61.163-72.009 82.404-32.394 21.344-66.611 33.825-116.72 42.576-26.328 4.5977-87.636 6.4306-129.45 3.8699zm-1213.2-13.542c-4.1503-10.707-279.14-782.73-279.14-783.67 0-0.6236 23.674-1.1338 52.608-1.1338h52.608l88.428 252.6c115.07 328.71 116.79 333.88 131.47 396.17l5.5435 23.527 8.447-33.531c16.591-65.86 19.262-73.861 136.74-409.68l79.79-228.09 53.511-0.5333c50.336-0.5017 53.453-0.3236 52.522 3.0012-0.9499 3.3939-275.8 774.16-278.62 781.34-1.2595 3.2061-5.642 3.5014-51.96 3.5014-46.325 0-50.699-0.2949-51.942-3.5014zm489.05-390.65v-394.15h442.11v88.034h-342.09v244.1h322.08v88.034h-322.08v280.11h342.09v88.034h-442.11zm1368.3 44.017v-350.14h-246.06v-88.034h592.15v88.034h-244.06v700.27h-102.03zm318.8 348.59c0.5261-0.8516 69.543-178 153.37-393.65 83.828-215.66 152.86-393.23 153.41-394.61 0.7583-1.8978 11.929-2.501 46.313-2.501h45.314l153.02 394.39c84.162 216.92 153.32 395.19 153.69 396.15 0.3739 0.9876-22.477 1.7465-52.013 1.7275l-52.68-0.034-94.093-243.03-310.61-1.0248-4.7896 12.517c-2.6343 6.8844-23.654 61.792-46.711 122.02l-41.921 109.5-51.631 0.042c-28.397 0.023-51.2-0.6548-50.674-1.5064zm475.4-331.85c0-0.6989-20.164-55.845-44.81-122.55s-52.287-144.91-61.426-173.79c-9.1388-28.881-17.244-51.84-18.012-51.02-0.7675 0.8195-4.2446 12.294-7.7269 25.5-13.447 50.993-23.992 81.944-67.144 197.08-24.54 65.476-45.238 120.62-45.995 122.55-1.3019 3.3117 5.3016 3.5014 121.87 3.5014 67.785 0 123.24-0.5719 123.24-1.2708z" fill="#fff"/><path d="m907.9 2123.1c-28.795-9.5183-47.056-30.859-52.223-61.026-5.2064-30.399 13.626-64.569 42.86-77.767 37.971-17.142 84.975 1.6654 99.913 39.978 6.2867 16.124 6.2108 39.066-0.18385 55.515-6.4654 16.632-24.537 34.659-41.026 40.926-16.429 6.2444-34.937 7.135-49.34 2.3741zm188.11-21.292c-22.073-7.1052-40.735-26.136-47.785-48.729-5.033-16.128-5.0212-28.541 0.042-44.596 12.165-38.574 52.992-60.134 91.958-48.561 43.809 13.012 65.364 62.56 45.172 103.84-6.435 13.154-21.182 27.809-34.585 34.367-13.371 6.5427-40.296 8.352-54.802 3.6826zm-347.83-34.056c-22.434-6.1894-41.6-23.974-50.015-46.41-6.1447-16.382-5.1234-40.887 2.3748-56.98 13.58-29.146 48.231-47.405 79.148-41.707 24.949 4.5983 44.473 19.462 55.297 42.1 5.5338 11.573 6.2185 14.988 6.2185 31.012 0 15.994-0.69189 19.461-6.1906 31.012-15.747 33.08-52.53 50.437-86.833 40.972zm-141.46-105.9c-21.285-6.6532-41.121-24.848-48.747-44.713-11.964-31.166 0.0796-70.076 27.265-88.085 14.626-9.6889 26.68-12.87 45.535-12.016 34.112 1.5446 58.934 21.319 68.489 54.564 7.978 27.758-3.5476 60.857-27.25 78.259-18.511 13.59-44.755 18.41-65.291 11.991zm335.51-5.7771c-24.234-5.416-41.717-19.707-52.622-43.015-8.0913-17.293-8.6222-38.832-1.4136-57.348 6.4053-16.452 24.488-34.569 41.033-41.109 18.466-7.2993 41.656-6.729 59.015 1.4514 42.075 19.828 56.348 70.704 30.469 108.61-17.316 25.365-47.696 37.841-76.48 31.408zm162.3-27.49c-21.912-4.3068-42.514-20.539-52.706-41.525-5.8228-11.99-6.4829-15.166-6.5157-31.348-0.032-16.026 0.6437-19.438 6.1443-31.012 7.8586-16.536 20.291-28.965 36.81-36.803 11.468-5.4414 15.011-6.1549 30.008-6.0448 21.718 0.1595 36.004 5.4684 50.586 18.797 30.426 27.812 32.38 74.875 4.3938 105.86-8.908 9.8614-26.83 19.31-41.844 22.061-13.29 2.4349-14.578 2.4358-26.876 0.018zm-315.77-50.65c-20.759-6.7759-37.068-21.221-46.282-40.991-7.3518-15.775-8.4178-40.529-2.4324-56.485 11.217-29.904 37.883-48.304 70.148-48.405 32.723-0.1022 60.578 20.114 70.378 51.077 11.377 35.945-5.3124 74.296-39.414 90.571-14.305 6.8274-38.469 8.7798-52.397 4.2335zm-308.21-37.497c-14.227-5.468-32.722-22.821-39.851-37.392-4.9432-10.103-5.5606-13.575-5.5785-31.368-0.018-17.545 0.63977-21.416 5.3413-31.448 7.5081-16.021 21.099-29.853 36.18-36.819 10.971-5.0682 14.758-5.7613 31.476-5.7613 16.399 0 20.562 0.7299 30.358 5.3229 15.895 7.4525 28.451 19.747 36.159 35.406 6.0253 12.241 6.5012 14.677 6.4972 33.258-4e-3 18.639-0.45193 20.907-6.367 32.231-8.1441 15.591-25.044 31.204-39.722 36.697-14.971 5.6021-39.739 5.5449-54.494-0.1258zm1033.4 0.3886c-13.14-5.1375-24.732-14.129-33.832-26.241-27.156-36.146-12.682-92.01 28.805-111.17 11.016-5.0886 14.691-5.7548 31.476-5.7056 16.194 0.047 20.632 0.8203 30.008 5.2267 16.277 7.6502 28.797 19.778 36.436 35.297 6.0376 12.266 6.5751 14.915 6.5751 32.407 0 16.799-0.6855 20.534-5.8033 31.618-7.4476 16.13-24.566 32.426-40.214 38.281-14.591 5.4601-39.878 5.5978-53.451 0.2911zm-303.96-47.856c-15.278-5.0503-23.799-10.609-34.487-22.498-17.93-19.945-23.299-50.906-13.287-76.613 6.5748-16.88 24.794-34.754 41.974-41.18 33.296-12.454 69.692-0.7374 89.256 28.733 31.516 47.473-1.3132 111.06-59.124 114.53-9.106 0.5452-16.399-0.344-24.333-2.9667zm-565.15-36c-32.798-11.336-54.228-47.22-48.654-81.471 3.9948-24.549 20.264-46.528 41.983-56.718 9.5356-4.4741 13.682-5.1646 31.012-5.1646 17.861 0 21.354 0.623 32.591 5.8126 41.462 19.149 55.01 74.385 27.405 111.74-18.809 25.449-54.112 36.251-84.337 25.805zm721.3-28.901c-20.392-8.6014-31.323-18.91-41.04-38.702-5.1153-10.419-5.7568-13.844-5.7568-30.733 0-16.435 0.7256-20.556 5.3615-30.448 7.5081-16.021 21.099-29.853 36.18-36.819 11.125-5.1391 14.632-5.7591 32.477-5.7411 17.707 0.018 21.286 0.6476 31.158 5.4817 14.533 7.117 29.214 21.736 35.664 35.514 7.3557 15.712 8.3468 42.179 2.1939 58.592-5.758 15.36-22.495 33.469-37.652 40.739-16.49 7.9096-42.615 8.8537-58.586 2.117zm220.87-41.03c-30.026-10.717-48.726-35.564-50.266-66.785-1.1976-24.288 6.2562-42.52 24.098-58.94 15.269-14.053 25.18-17.564 49.574-17.564s34.306 3.5116 49.574 17.564c18.035 16.599 25.443 34.921 24.025 59.423-1.644 28.403-17.442 51.44-43.592 63.568-14.797 6.8623-38.456 8.0735-53.414 2.7346zm-1156.3-27.189c-20.74-6.7697-37.028-21.186-46.313-40.991-4.5942-9.7995-5.2717-13.816-5.2717-31.252 0-17.719 0.62192-21.274 5.4364-31.079 6.9466-14.146 21.368-28.561 35.497-35.482 9.7894-4.7951 13.408-5.4292 31.084-5.447 17.845-0.018 21.352 0.602 32.477 5.7411 15.081 6.9666 28.672 20.798 36.18 36.819 4.636 9.8925 5.3615 14.013 5.3615 30.448 0 16.982-0.62664 20.284-5.8807 30.987-12.665 25.8-36.051 41.248-64.137 42.369-9.8721 0.394-19.234-0.4156-24.434-2.1129zm161.98-65.388c-14.976-5.8872-31.017-21.314-38.975-37.482-6.0093-12.208-6.5499-14.879-6.5499-32.356 0-16.495 0.7211-20.588 5.3777-30.526 6.8881-14.699 22.533-30.323 37.16-37.109 9.8426-4.5667 14.182-5.3326 30.481-5.3803 16.701-0.049 20.486 0.6291 31.229 5.5943 14.632 6.7632 28.427 20.256 36.159 35.366 5.118 10.002 5.6308 12.918 5.6308 32.012 0 18.973-0.54426 22.117-5.6168 32.448-7.3794 15.03-19.762 27.502-34.478 34.728-10.271 5.0438-14.543 5.9197-30.923 6.3397-15.279 0.3918-21.061-0.3209-29.493-3.636zm828.61-41.847c-24.71-9.7814-44.002-36.215-46.282-63.414-4.3846-52.307 44.986-92.445 95.321-77.495 13.782 4.0933 22.979 10.01 33.743 21.708 32.787 35.631 21.786 93.835-22.009 116.44-9.179 4.7386-13.485 5.5991-30.683 6.1313-16.304 0.5046-21.871-0.1196-30.091-3.3733zm188.8-47.757c-28.795-9.5183-47.056-30.859-52.223-61.026-1.8049-10.538-1.5956-15.078 1.2215-26.496 10.996-44.564 56.614-68.797 99.392-52.797 17.399 6.5077 35.464 24.144 41.992 40.997 6.4585 16.673 6.4518 39.383-0.016 56.022-6.4654 16.631-24.537 34.659-41.026 40.926-16.429 6.2444-34.937 7.1349-49.34 2.374zm-1206-27.338c-32.18-8.8785-54.014-37.976-54.014-71.985 0-26.019 10.978-47.052 32.092-61.485 37.535-25.659 89.061-11.496 109.28 30.039 4.9593 10.186 5.5684 13.628 5.5645 31.446-4e-3 18.511-0.4734 20.912-6.2736 32.096-16.927 32.638-52.906 49.2-86.653 39.889zm158.64-57.012c-14.873-4.8591-26.928-13.657-37.086-27.067-10.172-13.427-14.353-26.603-14.258-44.928 0.11123-21.527 5.9505-35.407 21.53-51.178 24.085-24.381 57.492-29.189 89.168-12.835 11.328 5.8487 24.149 19.983 30.841 34.001 5.5356 11.596 6.2046 14.957 6.1721 31.012-0.0328 16.175-0.6942 19.361-6.503 31.322-16.464 33.899-55.197 50.999-89.864 39.673zm837.96-54.046c-48.32-9.9733-74.847-62.143-53.89-105.98 6.6559-13.924 24.408-30.522 38.548-36.042 17.964-7.0132 41.906-6.7886 57.675 0.5411 30.181 14.029 47.03 41.535 44.714 72.996-3.2566 44.238-45.086 77.15-87.047 68.49zm186.29-37.564c-20.246-7.2265-35.298-20.893-44.408-40.318-4.5179-9.6335-5.2036-13.732-5.2036-31.103 0-17.894 0.5957-21.221 5.6382-31.491 14.481-29.494 48.116-47.303 78.671-41.653 25.146 4.6492 45.251 19.58 56.089 41.653 5.0449 10.275 5.6381 13.593 5.6381 31.533 0 18.623-0.4679 21-6.5751 33.408-7.6613 15.564-20.234 27.724-36.436 35.237-14.797 6.8622-38.456 8.0735-53.414 2.7345zm-1138.7-56.435c-19.362-7.0846-34.345-21.264-43.666-41.322-7.2401-15.58-7.5465-39.745-0.7251-57.191 19.092-48.83 84.026-62.082 121.24-24.745 36.728 36.846 26.578 96.488-20.353 119.6-16.985 8.3629-39.639 9.8312-56.498 3.662zm218.54 0.2702c-20.995-7.8-35.755-21.588-45.25-42.268-3.21-6.9917-4.1658-13.259-4.2771-28.046-0.13224-17.556 0.36001-20.066 6.3034-32.147 11.299-22.966 30.181-37.344 55.069-41.931 30.808-5.6782 65.761 12.666 78.924 41.42 17.183 37.538 1.951 80.963-34.734 99.025-16.947 8.3443-39.853 9.957-56.035 3.9452zm657.97-69.252c-15.274-4.2969-21.954-8.2507-33.422-19.78-29.64-29.799-29.651-74.739-0.025-104.52 36.287-36.482 96.738-25.831 119.51 21.059 5.7481 11.834 6.4054 15.027 6.4188 31.19 0.012 15.326-0.7785 19.71-5.315 29.448-15.72 33.742-53.332 52.126-87.17 42.607zm-518.59-41.663c-22.892-6.6263-39.081-19.944-49.133-40.421-8.0703-16.439-9.2854-40.491-2.9051-57.501 8.8108-23.49 27.719-40.44 52.074-46.68 33.705-8.6359 69.521 8.4597 85.371 40.749 5.016 10.218 5.6148 13.572 5.6148 31.446 0 18.041-0.5725 21.176-5.8239 31.888-15.375 31.363-53.761 49.619-85.198 40.52zm694.03-14.12c-20.608-5.5573-39.896-22.279-49.519-42.932-4.4795-9.6138-5.2939-14.116-5.3121-29.362-0.02-16.038 0.6573-19.429 6.187-31.012 7.8674-16.48 20.211-28.806 36.782-36.728 11.435-5.4666 15.054-6.2109 30.008-6.1706 23.624 0.064 37 5.5246 53.188 21.715 15.426 15.428 21.295 29.401 21.504 51.195 0.172 17.9-3.9013 31.096-13.738 44.506-18.107 24.684-50.543 36.489-79.1 28.788zm-525.99-28.011c-22.355-6.5365-37.733-19.236-48.706-40.221-5.8714-11.229-6.3036-13.448-6.2457-32.072 0.055-17.719 0.69753-21.316 5.6152-31.446 20.158-41.52 71.732-55.699 109.27-30.039 49.532 33.86 40.097 111.83-15.92 131.56-12.408 4.3704-33.093 5.4149-44.011 2.2225zm182.81 0.034c-21.376-5.4454-40.561-21.791-50.427-42.966-4.4795-9.6138-5.2939-14.116-5.3121-29.362-0.02-16.038 0.6573-19.429 6.187-31.012 7.8977-16.543 20.273-28.876 36.782-36.656 11.291-5.321 15.242-6.1322 30.008-6.1618 21.733-0.0436 35.751 5.2067 50.918 19.07 24.383 22.288 31.148 57.606 16.765 87.528-6.8809 14.314-24.498 30.782-38.558 36.044-14.796 5.5367-33.008 6.9181-46.362 3.5164zm-588.52-23.149c-42.859-15.903-62.358-62.97-42.662-102.98 8.6151-17.502 23.281-30.742 40.961-36.978 36.268-12.792 76.023 3.34 92.894 37.695 4.8162 9.808 5.4364 13.357 5.4364 31.11 0 18.562-0.4791 21.013-6.5015 33.258-12.494 25.403-34.983 39.98-63.516 41.167-12.233 0.5091-18.503-0.2612-26.611-3.2695zm765.48-90.891c-27.31-10.095-44.473-30.491-49.64-58.989-6.5474-36.112 16.248-72.58 52.008-83.201 40.281-11.964 82.835 12.178 93.155 52.849 8.7861 34.627-8.0201 70.263-40.736 86.378-11.604 5.7157-42.78 7.4024-54.787 2.9641zm-585.83-34.36c-22.434-6.1895-41.6-23.974-50.015-46.41-6.1447-16.382-5.1234-40.887 2.3748-56.98 13.58-29.145 48.231-47.405 79.148-41.707 24.949 4.5983 44.473 19.462 55.297 42.1 5.5338 11.573 6.2185 14.988 6.2185 31.012 0 15.994-0.69189 19.461-6.1906 31.012-15.747 33.08-52.53 50.437-86.833 40.972zm408.4-36.869c-5.8868-2.1705-12.188-5.0571-14.004-6.4147-10.758-8.0466-21.449-20.224-26.953-30.701-5.8467-11.13-6.3082-13.463-6.3307-32.012-0.021-17.55 0.6344-21.413 5.3372-31.448 7.5081-16.021 21.099-29.853 36.18-36.819 11.016-5.0886 14.691-5.7548 31.476-5.7056 16.194 0.0474 20.632 0.82034 30.008 5.2268 16.277 7.6501 28.797 19.778 36.436 35.297 6.0407 12.272 6.5751 14.91 6.5751 32.449 0 17.496-0.5434 20.196-6.5014 32.3-7.7176 15.679-20.289 27.978-36.159 35.374-15.362 7.1602-40.337 8.2537-56.065 2.4547zm-206.68-5.811c-15.089-5.0001-23.93-10.697-33.53-21.604-26.991-30.668-25.802-73.222 2.8486-101.97 29.897-29.994 78.194-28.942 106.77 2.3248 13.815 15.118 19.094 29.176 19.126 50.925 0.02 14.221-0.8444 18.881-5.2791 28.447-16.122 34.777-55.715 53.212-89.932 41.873z" fill="#ff6701"/></g></g></svg>
